<?xml version="1.0" encoding="UTF-8" standalone="no"?>
<!DOCTYPE svg PUBLIC "-//W3C//DTD SVG 1.1//EN"
 "http://www.w3.org/Graphics/SVG/1.1/DTD/svg11.dtd">
<!-- Generated by graphviz version 3.0.0 (20220226.1711)
 -->
<!-- Title: dependencies Pages: 1 -->
<svg width="244pt" height="247pt"
 viewBox="0.00 0.00 244.00 246.80" xmlns="http://www.w3.org/2000/svg" xmlns:xlink="http://www.w3.org/1999/xlink">
<g id="graph0" class="graph" transform="scale(1 1) rotate(0) translate(4 242.8)">
<title>dependencies</title>
<polygon fill="white" stroke="transparent" points="-4,4 -4,-242.8 240,-242.8 240,4 -4,4"/>
<text text-anchor="middle" x="118" y="-8.2" font-family="sans-serif" font-size="14.00">dependencies</text>
<g id="clust1" class="cluster">
<title>cluster_EmailHandlerModule</title>
<polygon fill="none" stroke="black" stroke-dasharray="1,5" points="8,-32.8 8,-230.8 228,-230.8 228,-32.8 8,-32.8"/>
</g>
<g id="clust6" class="cluster">
<title>cluster_EmailHandlerModule_providers</title>
<polygon fill="none" stroke="black" points="16,-40.8 16,-92.8 220,-92.8 220,-40.8 16,-40.8"/>
</g>
<g id="clust4" class="cluster">
<title>cluster_EmailHandlerModule_exports</title>
<polygon fill="none" stroke="black" points="40,-170.8 40,-222.8 196,-222.8 196,-170.8 40,-170.8"/>
</g>
<!-- EmailHandlerService  -->
<g id="node1" class="node">
<title>EmailHandlerService </title>
<polygon fill="#fb8072" stroke="black" points="188,-214.8 48,-214.8 48,-178.8 188,-178.8 188,-214.8"/>
<text text-anchor="middle" x="118" y="-192.6" font-family="Times,serif" font-size="14.00">EmailHandlerService </text>
</g>
<!-- EmailHandlerModule -->
<g id="node2" class="node">
<title>EmailHandlerModule</title>
<polygon fill="#8dd3c7" stroke="black" points="187.08,-149.8 184.08,-153.8 163.08,-153.8 160.08,-149.8 48.92,-149.8 48.92,-113.8 187.08,-113.8 187.08,-149.8"/>
<text text-anchor="middle" x="118" y="-127.6" font-family="Times,serif" font-size="14.00">EmailHandlerModule</text>
</g>
<!-- EmailHandlerModule&#45;&gt;EmailHandlerService  -->
<g id="edge1" class="edge">
<title>EmailHandlerModule&#45;&gt;EmailHandlerService </title>
<path fill="none" stroke="black" stroke-dasharray="5,2" d="M118,-149.91C118,-149.91 118,-168.79 118,-168.79"/>
<polygon fill="black" stroke="black" points="114.5,-168.79 118,-178.79 121.5,-168.79 114.5,-168.79"/>
</g>
<!-- EmailHandlerService -->
<g id="node3" class="node">
<title>EmailHandlerService</title>
<ellipse fill="#fdb462" stroke="black" cx="118" cy="-66.8" rx="94.32" ry="18"/>
<text text-anchor="middle" x="118" y="-62.6" font-family="Times,serif" font-size="14.00">EmailHandlerService</text>
</g>
<!-- EmailHandlerService&#45;&gt;EmailHandlerModule -->
<g id="edge2" class="edge">
<title>EmailHandlerService&#45;&gt;EmailHandlerModule</title>
<path fill="none" stroke="black" d="M118,-84.91C118,-84.91 118,-103.79 118,-103.79"/>
<polygon fill="black" stroke="black" points="114.5,-103.79 118,-113.79 121.5,-103.79 114.5,-103.79"/>
</g>
</g>
</svg>
