<?xml version="1.0" encoding="UTF-8" standalone="no"?>
<!DOCTYPE svg PUBLIC "-//W3C//DTD SVG 1.1//EN"
 "http://www.w3.org/Graphics/SVG/1.1/DTD/svg11.dtd">
<!-- Generated by graphviz version 3.0.0 (20220226.1711)
 -->
<!-- Title: dependencies Pages: 1 -->
<svg width="748pt" height="174pt"
 viewBox="0.00 0.00 748.00 173.80" xmlns="http://www.w3.org/2000/svg" xmlns:xlink="http://www.w3.org/1999/xlink">
<g id="graph0" class="graph" transform="scale(1 1) rotate(0) translate(4 169.8)">
<title>dependencies</title>
<polygon fill="white" stroke="transparent" points="-4,4 -4,-169.8 744,-169.8 744,4 -4,4"/>
<text text-anchor="middle" x="370" y="-8.2" font-family="sans-serif" font-size="14.00">dependencies</text>
<g id="clust1" class="cluster">
<title>cluster_AppModule</title>
<polygon fill="none" stroke="black" stroke-dasharray="1,5" points="8,-32.8 8,-157.8 732,-157.8 732,-32.8 8,-32.8"/>
</g>
<g id="clust3" class="cluster">
<title>cluster_AppModule_imports</title>
<polygon fill="none" stroke="black" points="154,-40.8 154,-92.8 724,-92.8 724,-40.8 154,-40.8"/>
</g>
<g id="clust6" class="cluster">
<title>cluster_AppModule_providers</title>
<polygon fill="none" stroke="black" points="16,-40.8 16,-92.8 146,-92.8 146,-40.8 16,-40.8"/>
</g>
<!-- AuthModule -->
<g id="node1" class="node">
<title>AuthModule</title>
<polygon fill="#8dd3c7" stroke="black" points="715.55,-84.8 712.55,-88.8 691.55,-88.8 688.55,-84.8 628.45,-84.8 628.45,-48.8 715.55,-48.8 715.55,-84.8"/>
<text text-anchor="middle" x="672" y="-62.6" font-family="Times,serif" font-size="14.00">AuthModule</text>
</g>
<!-- AppModule -->
<g id="node6" class="node">
<title>AppModule</title>
<polygon fill="#8dd3c7" stroke="black" points="428.66,-149.8 425.66,-153.8 404.66,-153.8 401.66,-149.8 345.34,-149.8 345.34,-113.8 428.66,-113.8 428.66,-149.8"/>
<text text-anchor="middle" x="387" y="-127.6" font-family="Times,serif" font-size="14.00">AppModule</text>
</g>
<!-- AuthModule&#45;&gt;AppModule -->
<g id="edge1" class="edge">
<title>AuthModule&#45;&gt;AppModule</title>
<path fill="none" stroke="black" d="M672,-85.08C672,-106.12 672,-137.8 672,-137.8 672,-137.8 438.75,-137.8 438.75,-137.8"/>
<polygon fill="black" stroke="black" points="438.75,-134.3 428.75,-137.8 438.75,-141.3 438.75,-134.3"/>
</g>
<!-- CoreModule -->
<g id="node2" class="node">
<title>CoreModule</title>
<polygon fill="#8dd3c7" stroke="black" points="610.27,-84.8 607.27,-88.8 586.27,-88.8 583.27,-84.8 523.73,-84.8 523.73,-48.8 610.27,-48.8 610.27,-84.8"/>
<text text-anchor="middle" x="567" y="-62.6" font-family="Times,serif" font-size="14.00">CoreModule</text>
</g>
<!-- CoreModule&#45;&gt;AppModule -->
<g id="edge2" class="edge">
<title>CoreModule&#45;&gt;AppModule</title>
<path fill="none" stroke="black" d="M567,-84.82C567,-102.17 567,-125.8 567,-125.8 567,-125.8 438.75,-125.8 438.75,-125.8"/>
<polygon fill="black" stroke="black" points="438.75,-122.3 428.75,-125.8 438.75,-129.3 438.75,-122.3"/>
</g>
<!-- DatabaseModule -->
<g id="node3" class="node">
<title>DatabaseModule</title>
<polygon fill="#8dd3c7" stroke="black" points="505.36,-84.8 502.36,-88.8 481.36,-88.8 478.36,-84.8 394.64,-84.8 394.64,-48.8 505.36,-48.8 505.36,-84.8"/>
<text text-anchor="middle" x="450" y="-62.6" font-family="Times,serif" font-size="14.00">DatabaseModule</text>
</g>
<!-- DatabaseModule&#45;&gt;AppModule -->
<g id="edge3" class="edge">
<title>DatabaseModule&#45;&gt;AppModule</title>
<path fill="none" stroke="black" d="M411.7,-84.91C411.7,-84.91 411.7,-103.79 411.7,-103.79"/>
<polygon fill="black" stroke="black" points="408.2,-103.79 411.7,-113.79 415.2,-103.79 408.2,-103.79"/>
</g>
<!-- ThrottleModule -->
<g id="node4" class="node">
<title>ThrottleModule</title>
<polygon fill="#8dd3c7" stroke="black" points="376.15,-84.8 373.15,-88.8 352.15,-88.8 349.15,-84.8 271.85,-84.8 271.85,-48.8 376.15,-48.8 376.15,-84.8"/>
<text text-anchor="middle" x="324" y="-62.6" font-family="Times,serif" font-size="14.00">ThrottleModule</text>
</g>
<!-- ThrottleModule&#45;&gt;AppModule -->
<g id="edge4" class="edge">
<title>ThrottleModule&#45;&gt;AppModule</title>
<path fill="none" stroke="black" d="M360.75,-84.91C360.75,-84.91 360.75,-103.79 360.75,-103.79"/>
<polygon fill="black" stroke="black" points="357.25,-103.79 360.75,-113.79 364.25,-103.79 357.25,-103.79"/>
</g>
<!-- UsersModule -->
<g id="node5" class="node">
<title>UsersModule</title>
<polygon fill="#8dd3c7" stroke="black" points="253.94,-84.8 250.94,-88.8 229.94,-88.8 226.94,-84.8 162.06,-84.8 162.06,-48.8 253.94,-48.8 253.94,-84.8"/>
<text text-anchor="middle" x="208" y="-62.6" font-family="Times,serif" font-size="14.00">UsersModule</text>
</g>
<!-- UsersModule&#45;&gt;AppModule -->
<g id="edge5" class="edge">
<title>UsersModule&#45;&gt;AppModule</title>
<path fill="none" stroke="black" d="M208,-84.82C208,-102.17 208,-125.8 208,-125.8 208,-125.8 335.03,-125.8 335.03,-125.8"/>
<polygon fill="black" stroke="black" points="335.03,-129.3 345.03,-125.8 335.03,-122.3 335.03,-129.3"/>
</g>
<!-- AppService -->
<g id="node7" class="node">
<title>AppService</title>
<ellipse fill="#fdb462" stroke="black" cx="81" cy="-66.8" rx="56.75" ry="18"/>
<text text-anchor="middle" x="81" y="-62.6" font-family="Times,serif" font-size="14.00">AppService</text>
</g>
<!-- AppService&#45;&gt;AppModule -->
<g id="edge6" class="edge">
<title>AppService&#45;&gt;AppModule</title>
<path fill="none" stroke="black" d="M81,-85.08C81,-106.12 81,-137.8 81,-137.8 81,-137.8 335.09,-137.8 335.09,-137.8"/>
<polygon fill="black" stroke="black" points="335.09,-141.3 345.09,-137.8 335.09,-134.3 335.09,-141.3"/>
</g>
</g>
</svg>
