<?xml version="1.0" encoding="UTF-8" standalone="no"?>
<!DOCTYPE svg PUBLIC "-//W3C//DTD SVG 1.1//EN"
 "http://www.w3.org/Graphics/SVG/1.1/DTD/svg11.dtd">
<!-- Generated by graphviz version 3.0.0 (20220226.1711)
 -->
<!-- Title: dependencies Pages: 1 -->
<svg width="180pt" height="174pt"
 viewBox="0.00 0.00 180.00 173.80" xmlns="http://www.w3.org/2000/svg" xmlns:xlink="http://www.w3.org/1999/xlink">
<g id="graph0" class="graph" transform="scale(1 1) rotate(0) translate(4 169.8)">
<title>dependencies</title>
<polygon fill="white" stroke="transparent" points="-4,4 -4,-169.8 176,-169.8 176,4 -4,4"/>
<text text-anchor="middle" x="86" y="-8.2" font-family="sans-serif" font-size="14.00">dependencies</text>
<g id="clust1" class="cluster">
<title>cluster_CoreModule</title>
<polygon fill="none" stroke="black" stroke-dasharray="1,5" points="8,-32.8 8,-157.8 164,-157.8 164,-32.8 8,-32.8"/>
</g>
<g id="clust4" class="cluster">
<title>cluster_CoreModule_exports</title>
<polygon fill="none" stroke="black" points="16,-97.8 16,-149.8 156,-149.8 156,-97.8 16,-97.8"/>
</g>
<!-- ...exportProvider()  -->
<g id="node1" class="node">
<title>...exportProvider() </title>
<polygon fill="#fb8072" stroke="black" points="147.8,-141.8 24.2,-141.8 24.2,-105.8 147.8,-105.8 147.8,-141.8"/>
<text text-anchor="middle" x="86" y="-119.6" font-family="Times,serif" font-size="14.00">...exportProvider() </text>
</g>
<!-- CoreModule -->
<g id="node2" class="node">
<title>CoreModule</title>
<polygon fill="#8dd3c7" stroke="black" points="129.27,-76.8 126.27,-80.8 105.27,-80.8 102.27,-76.8 42.73,-76.8 42.73,-40.8 129.27,-40.8 129.27,-76.8"/>
<text text-anchor="middle" x="86" y="-54.6" font-family="Times,serif" font-size="14.00">CoreModule</text>
</g>
<!-- CoreModule&#45;&gt;...exportProvider()  -->
<g id="edge1" class="edge">
<title>CoreModule&#45;&gt;...exportProvider() </title>
<path fill="none" stroke="black" stroke-dasharray="5,2" d="M86,-76.91C86,-76.91 86,-95.79 86,-95.79"/>
<polygon fill="black" stroke="black" points="82.5,-95.79 86,-105.79 89.5,-95.79 82.5,-95.79"/>
</g>
</g>
</svg>
